Coordinates
version=1
nRows=12
nColumns=34
inDegrees=yes

Units are S.I. units (second, meters, Newtons, ...)
If the header above contains a line with 'inDegrees', this indicates whether rotational values are in degrees (yes) or radians (no).

endheader
time	pelvis_tilt	pelvis_list	pelvis_rotation	pelvis_tx	pelvis_ty	pelvis_tz	hip_flexion_r	hip_adduction_r	hip_rotation_r	knee_angle_r	ankle_angle_r	subtalar_angle_r	mtp_angle_r	hip_flexion_l	hip_adduction_l	hip_rotation_l	knee_angle_l	ankle_angle_l	subtalar_angle_l	mtp_angle_l	lumbar_extension	lumbar_bending	lumbar_rotation	arm_flex_r	arm_add_r	arm_rot_r	elbow_flex_r	pro_sup_r	arm_flex_l	arm_add_l	arm_rot_l	elbow_flex_l	pro_sup_l
     15.40833330	      1.57400720	      0.83802951	    173.99832081	      1.91755225	      1.06569232	     -0.55687024	    -11.54226426	      4.31039228	      6.65374808	     22.17112475	     -6.72514481	     -7.31893466	      0.00000000	     43.89643269	     -4.73541059	     -9.17810279	     43.38197517	    -13.81284030	    -22.14125667	      0.00000000	    -13.75389451	      4.58696839	     18.18955713	      5.11140396	    -24.42010815	     15.39542329	    125.12729256	    100.34513889	    -45.79442640	    -19.56928512	     -8.21472426	    107.40331450	     95.65588502
     15.41666670	      1.76832655	      2.44890743	    173.88196143	      1.91469772	      1.06821533	     -0.55619005	    -13.06938433	      5.67635000	      7.90565622	     21.56306138	     -8.28240797	     -6.81038432	      0.00000000	     42.63038150	     -6.19804889	    -10.17745311	     36.48813323	    -17.77399076	    -19.20848054	      0.00000000	    -13.17460295	      6.61115861	     19.61169687	      4.01490913	    -25.88771641	     17.12708280	    127.90338611	    100.39740447	    -47.37184333	    -19.55080358	     -8.76873672	    108.65187588	     95.40724819
     15.42500000	      1.87462087	      4.16353840	    173.47277952	      1.91161399	      1.07415749	     -0.55573676	    -14.59349804	      7.06820007	      9.60878403	     21.32276005	     -9.23796563	     -6.89210586	      0.00000000	     41.19429461	     -7.75128766	    -11.46190439	     29.60774250	    -20.71183155	    -15.26845231	      0.00000000	    -12.89302001	      8.68036376	     21.11086139	      3.42073484	    -27.31811455	     19.31277790	    130.86466967	    100.45416631	    -48.75800110	    -19.32133653	     -9.21125102	    109.74887137	     95.09257266
     15.43333330	      1.91916267	      6.09922320	    172.87592950	      1.90847794	      1.07460205	     -0.55527150	    -15.88778505	      8.59527626	     11.41886470	     22.05427207	    -10.05310173	     -7.84890580	      0.00000000	     39.85563632	     -9.47969232	    -12.55658108	     23.27025440	    -22.59620964	    -10.53123243	      0.00000000	    -12.95573495	     10.83527181	     22.53013887	      3.49573670	    -28.86319739	     21.66614804	    134.07110859	    100.51429722	    -50.85574995	    -19.04259014	     -9.81684806	    111.73325502	     94.73678875
     15.44166670	      1.52363472	      7.91746711	    172.03393574	      1.90623535	      1.08060497	     -0.55561074	    -17.29703806	     10.02143887	     13.55795353	     23.74454119	     -9.69351750	     -9.72251843	      0.00000000	     38.05187301	    -11.20339778	    -13.81280227	     17.58314958	    -23.25282386	     -5.19165856	      0.00000000	    -13.78256914	     12.60307155	     23.75408061	      4.35527412	    -30.18230584	     24.32541786	    136.26011904	    100.49759013	    -52.14128782	    -18.07021534	    -10.82109954	    113.08236270	     94.14146812
     15.45000000	      1.12606513	      9.59681852	    171.02344531	      1.90477998	      1.08480874	     -0.55612863	    -18.37710314	     11.22739144	     15.47910105	     26.05871989	     -9.06267802	    -11.86403666	      0.00000000	     36.39720074	    -12.88208587	    -14.80998844	     12.87997754	    -23.83858781	     -0.38915712	      0.00000000	    -14.65515401	     14.19408398	     24.02238160	      7.35152281	    -31.42029077	     27.91662478	    135.82973721	    100.08667423	    -53.57700730	    -16.14211773	    -12.29449411	    114.20886473	     92.84735506
     15.45833330	      0.83860183	     11.26875789	    170.05262285	      1.90333021	      1.08668577	     -0.55667202	    -18.73837125	     12.60128177	     16.94830705	     29.80628573	     -7.35212327	    -13.93277425	      0.00000000	     35.22043037	    -14.59643755	    -15.13559383	      9.70879749	    -23.55123859	      3.46966820	      0.00000000	    -15.74037422	     15.52869025	     25.21282641	      8.25673465	    -32.67213680	     29.53067128	    135.78437041	     99.75415075	    -53.62346881	    -14.53682874	    -12.93573741	    114.93724043	     92.30617416
     15.46666670	      0.28942850	     12.49006628	    169.33178257	      1.90198093	      1.08471302	     -0.55711546	    -18.81103449	     13.62610865	     17.84778699	     34.40830649	     -6.44474074	    -16.70704189	      0.00000000	     33.99522133	    -15.78548214	    -14.98813267	      7.62575671	    -22.95529563	      6.20785230	      0.00000000	    -16.83522014	     16.40089791	     26.01761797	      9.76373741	    -33.69018103	     31.10990052	    135.08110640	     99.28547101	    -52.47728175	    -13.01434005	    -13.43942726	    114.83741364	     91.68684234
     15.47500000	     -0.32153527	     13.25089864	    168.89277578	      1.90063816	      1.08200011	     -0.55741248	    -18.42823171	     14.36890631	     18.06451540	     39.86341159	     -4.47054226	    -19.45974577	      0.00000000	     33.12756543	    -16.51846530	    -14.37425653	      6.75201092	    -22.36828038	      7.87561966	      0.00000000	    -17.81720095	     16.76530034	     26.13945359	     11.84184162	    -34.52473464	     33.37684313	    134.78447626	     98.35310095	    -51.67266998	    -11.56374371	    -14.31177441	    115.25978173	     90.64980127
     15.48333330	     -0.78400005	     13.83806170	    168.61121136	      1.89875697	      1.08214569	     -0.55761375	    -17.61382415	     15.09280998	     18.06544098	     45.36898877	     -3.49922327	    -21.92335358	      0.00000000	     32.17862782	    -16.93415357	    -13.49792751	      6.00932716	    -21.76453308	      8.64694054	      0.00000000	    -18.38564584	     17.13761877	     26.54558303	     12.12043910	    -35.14589311	     33.96195106	    134.47328796	     98.08998607	    -50.58155812	    -10.66872369	    -14.70142624	    115.49698059	     90.35490862
     15.49166670	     -1.27119302	     13.95222943	    168.86472860	      1.89588948	      1.07375623	     -0.55727560	    -16.59302135	     15.47162552	     17.38363335	     50.93141469	     -2.68817327	    -24.47414005	      0.00000000	     31.54874508	    -16.72993846	    -12.55040728	      5.81699037	    -20.83560779	      9.36726049	      0.00000000	    -18.62286133	     16.96038811	     26.22316307	     12.10567109	    -35.56972225	     35.02083631	    135.40985475	     97.82111390	    -50.16069616	    -10.31091451	    -15.37016006	    116.67371206	     90.03082704
     15.50000000	     -1.80282778	     13.97752374	    169.41458834	      1.89276181	      1.07123417	     -0.55710433	    -15.28755790	     15.87183340	     16.40355651	     56.80139402	     -3.25455329	    -26.39280545	      0.00000000	     30.67544879	    -16.26928771	    -11.56197924	      5.86688626	    -20.39522414	      9.60006891	      0.00000000	    -18.63402540	     16.78578385	     25.47059375	     11.47018953	    -35.84572671	     36.06861529	    135.76477148	     97.52748311	    -49.53095519	    -10.05022582	    -16.11014652	    117.60179940	     89.67563704
